<?xml version="1.0" encoding="utf-8"?>
<!-- Generator: Adobe Illustrator 25.3.1, SVG Export Plug-In . SVG Version: 6.00 Build 0)  -->
<svg version="1.1" id="Layer_1" xmlns="http://www.w3.org/2000/svg" xmlns:xlink="http://www.w3.org/1999/xlink" x="0px" y="0px"
	 viewBox="0 0 182.9 140.8" style="enable-background:new 0 0 182.9 140.8;" xml:space="preserve">
<style type="text/css">
	.st0{fill:none;}
	.st1{fill:#585858;}
	.st2{fill:#FFFFFF;}
</style>
<polyline class="st0" points="157.5,172.4 158.2,171.6 170.4,158.5 170.4,158.5 170.6,158.2 "/>
<line class="st0" x1="-327.6" y1="44.2" x2="-327.6" y2="39.2"/>
<line class="st0" x1="-327.6" y1="73.4" x2="-327.6" y2="68.4"/>
<g>
	<polygon class="st1" points="91.4,140.8 182.9,0 0,0 	"/>
	<g>
		<path class="st2" d="M52.7,43.9c2.1,29.8,0,50,39.4,50c33.7,0,32.9-22.7,34.8-50"/>
		<ellipse class="st1" cx="89.8" cy="43.9" rx="37.1" ry="9"/>
	</g>
	<path class="st1" d="M110.2,3"/>
	<path class="st2" d="M124.7,51.9l-0.4,3.8c5,0.6,8.6,5.1,8.1,10.1c-0.6,5-8.6,7.1-13.6,6.6l-0.2,4.3c7.1,0.8,16.8-3.3,17.6-10.4
		C136.9,59,131.8,52.7,124.7,51.9C124.7,51.9,124.7,51.9,124.7,51.9z"/>
	<path class="st2" d="M70.5,44.2c6.5-4.4,7.6-7.5,7.4-9.5c-0.5-4.2-6.8-4.9-9.2-10.2c-2.1-4.6,0-10.1,2.1-14.2
		c-0.6,4.4-0.6,10.5,3.1,15.4c3.5,4.6,8.3,5.2,8.6,8.3C82.7,36.1,80.9,39.4,70.5,44.2z"/>
	<path class="st2" d="M85.2,44.2c6.5-4.4,7.6-7.5,7.4-9.5c-0.5-4.2-6.8-4.9-9.2-10.2c-2.1-4.6,0-10.1,2.1-14.2
		c-0.6,4.4-0.6,10.5,3.1,15.4c3.5,4.6,8.3,5.2,8.6,8.3C97.4,36.1,95.6,39.4,85.2,44.2z"/>
	<path class="st2" d="M99.8,44.2c6.5-4.4,7.6-7.5,7.4-9.5c-0.5-4.2-6.8-4.9-9.2-10.2c-2.1-4.6,0-10.1,2.2-14.2
		c-0.6,4.4-0.6,10.5,3.1,15.4c3.5,4.6,8.3,5.2,8.6,8.3C112.1,36.1,110.2,39.4,99.8,44.2z"/>
</g>
</svg>
