<svg xmlns="http://www.w3.org/2000/svg" viewBox="0 0 510.45 172.35">
  <defs>
    <style>
      .a {
        fill: none;
      }

      .b {
        fill: #585858;
      }

      .c {
        fill: #fff;
      }
    </style>
  </defs>
  <polyline class="a" points="485.09 172.35 485.78 171.61 497.95 158.47 497.96 158.47 498.21 158.19"/>
  <line class="a" y1="44.18" y2="39.17"/>
  <line class="a" y1="73.42" y2="68.4"/>
  <g>
    <polygon class="b" points="419.01 140.75 510.44 0 327.57 0 419.01 140.75"/>
    <g>
      <path class="c" d="M111.3,105.24c2.13,29.83,0,50,39.39,50,33.72,0,32.89-22.69,34.77-50" transform="translate(269.01 -61.37)"/>
      <ellipse class="b" cx="417.39" cy="43.87" rx="37.08" ry="8.98"/>
    </g>
    <path class="b" d="M168.74,64.35" transform="translate(269.01 -61.37)"/>
    <path class="c" d="M183.23,113.22l-.42,3.75a9.14,9.14,0,0,1,8.05,10.11c-.56,5-8.61,7.14-13.62,6.58l-.2,4.26c7.1.8,16.78-3.32,17.58-10.42A12.91,12.91,0,0,0,183.23,113.22Z" transform="translate(269.01 -61.37)"/>
    <path class="c" d="M129.05,105.58c6.54-4.4,7.65-7.5,7.39-9.53-.52-4.16-6.83-4.86-9.23-10.16-2.09-4.6,0-10.08,2.15-14.15-.56,4.36-.59,10.54,3.08,15.38,3.51,4.63,8.3,5.25,8.61,8.31C141.26,97.49,139.46,100.74,129.05,105.58Z" transform="translate(269.01 -61.37)"/>
    <path class="c" d="M143.78,105.58c6.54-4.4,7.65-7.5,7.39-9.53-.52-4.16-6.83-4.86-9.23-10.16-2.09-4.6,0-10.08,2.15-14.15-.56,4.36-.59,10.54,3.08,15.38,3.51,4.63,8.3,5.25,8.61,8.31C156,97.49,154.19,100.74,143.78,105.58Z" transform="translate(269.01 -61.37)"/>
    <path class="c" d="M158.4,105.58c6.54-4.4,7.64-7.5,7.38-9.53-.52-4.16-6.83-4.86-9.23-10.16-2.08-4.6,0-10.08,2.16-14.15-.56,4.36-.6,10.54,3.07,15.38,3.51,4.63,8.31,5.25,8.62,8.31C170.61,97.49,168.8,100.74,158.4,105.58Z" transform="translate(269.01 -61.37)"/>
  </g>
</svg>
